# Blender v2.79 (sub 0) OBJ File: 'blend.blend'
# www.blender.org
v 0.000000 0.300000 0.014335
v 0.176336 0.242705 0.014335
v 0.285317 0.092705 0.014335
v 0.285317 -0.092705 0.014335
v 0.176336 -0.242705 0.014335
v -0.000000 -0.300000 0.014335
v -0.176336 -0.242705 0.014335
v -0.285317 -0.092705 0.014335
v -0.285317 0.092705 0.014335
v -0.176336 0.242705 0.014335
v 0.000000 -0.000000 0.014335
v 0.000000 0.300000 -0.014335
v 0.176336 0.242705 -0.014335
v 0.285317 0.092705 -0.014335
v 0.285317 -0.092705 -0.014335
v 0.176336 -0.242705 -0.014335
v -0.000000 -0.300000 -0.014335
v -0.176336 -0.242705 -0.014335
v -0.285317 -0.092705 -0.014335
v -0.285317 0.092705 -0.014335
v -0.176336 0.242705 -0.014335
v 0.000000 0.300000 0.000000
v 0.176336 0.242705 0.000000
v 0.285317 0.092705 0.000000
v 0.285317 -0.092705 -0.000000
v 0.176336 -0.242705 -0.000000
v -0.000000 -0.300000 -0.000000
v -0.176336 -0.242705 -0.000000
v -0.285317 -0.092705 -0.000000
v -0.285317 0.092705 0.000000
v -0.176336 0.242705 0.000000
v 0.000000 -0.000000 -0.014335
vt 0.950969 0.345522
vt 0.926293 0.352858
vt 0.753718 0.116010
vt 0.769369 0.095571
vt 0.474886 0.025832
vt 0.475533 0.000098
vt 0.196300 0.116771
vt 0.181697 0.095571
vt 0.024372 0.354091
vt 0.000098 0.345522
vt 0.024773 0.647142
vt 0.000098 0.654479
vt 0.197349 0.883991
vt 0.181699 0.904430
vt 0.476181 0.974168
vt 0.475533 0.999903
vt 0.754766 0.883229
vt 0.769369 0.904430
vt 0.475533 0.500000
vt 0.926694 0.645911
vt 0.950969 0.654479
vt 0.753718 0.116010
vt 0.926293 0.352858
vt 0.474886 0.025832
vt 0.196300 0.116771
vt 0.024372 0.354091
vt 0.024773 0.647142
vt 0.197349 0.883991
vt 0.476181 0.974168
vt 0.754766 0.883229
vt 0.475533 0.500000
vt 0.926694 0.645911
vn 0.3090 0.9511 0.0000
vn 0.8090 0.5878 0.0000
vn 1.0000 0.0000 0.0000
vn 0.8090 -0.5878 -0.0000
vn 0.3090 -0.9511 -0.0000
vn -0.3090 -0.9511 0.0000
vn -0.8090 -0.5878 0.0000
vn -1.0000 0.0000 0.0000
vn -0.0000 -0.0000 1.0000
vn -0.8090 0.5878 0.0000
vn -0.3090 0.9511 0.0000
vn -0.0000 0.0000 -1.0000
s off
f 22/1/1 1/2/1 2/3/1 23/4/1
f 23/4/2 2/3/2 3/5/2 24/6/2
f 24/6/3 3/5/3 4/7/3 25/8/3
f 25/8/4 4/7/4 5/9/4 26/10/4
f 26/10/5 5/9/5 6/11/5 27/12/5
f 27/12/6 6/11/6 7/13/6 28/14/6
f 28/14/7 7/13/7 8/15/7 29/16/7
f 29/16/8 8/15/8 9/17/8 30/18/8
f 9/17/9 8/15/9 11/19/9
f 30/18/10 9/17/10 10/20/10 31/21/10
f 31/21/11 10/20/11 1/2/11 22/1/11
f 6/11/9 5/9/9 11/19/9
f 3/5/9 2/3/9 11/19/9
f 10/20/9 9/17/9 11/19/9
f 7/13/9 6/11/9 11/19/9
f 4/7/9 3/5/9 11/19/9
f 1/2/9 10/20/9 11/19/9
f 2/3/9 1/2/9 11/19/9
f 8/15/9 7/13/9 11/19/9
f 5/9/9 4/7/9 11/19/9
f 22/1/1 23/4/1 13/22/1 12/23/1
f 23/4/2 24/6/2 14/24/2 13/22/2
f 24/6/3 25/8/3 15/25/3 14/24/3
f 25/8/4 26/10/4 16/26/4 15/25/4
f 26/10/5 27/12/5 17/27/5 16/26/5
f 27/12/6 28/14/6 18/28/6 17/27/6
f 28/14/7 29/16/7 19/29/7 18/28/7
f 29/16/8 30/18/8 20/30/8 19/29/8
f 20/30/12 32/31/12 19/29/12
f 30/18/10 31/21/10 21/32/10 20/30/10
f 31/21/11 22/1/11 12/23/11 21/32/11
f 17/27/12 32/31/12 16/26/12
f 14/24/12 32/31/12 13/22/12
f 21/32/12 32/31/12 20/30/12
f 18/28/12 32/31/12 17/27/12
f 15/25/12 32/31/12 14/24/12
f 12/23/12 32/31/12 21/32/12
f 13/22/12 32/31/12 12/23/12
f 19/29/12 32/31/12 18/28/12
f 16/26/12 32/31/12 15/25/12
